<svg width="17" height="16" viewBox="0 0 17 16" fill="none" xmlns="http://www.w3.org/2000/svg">
<path d="M9.25997 11.5733L7.42664 9.74" stroke="#B62230" stroke-miterlimit="10" stroke-linecap="round" stroke-linejoin="round"/>
<path d="M9.23995 9.76L7.40662 11.5933" stroke="#B62230" stroke-miterlimit="10" stroke-linecap="round" stroke-linejoin="round"/>
<path d="M6.20655 1.33334L3.79321 3.75334" stroke="#B62230" stroke-miterlimit="10" stroke-linecap="round" stroke-linejoin="round"/>
<path d="M10.4598 1.33334L12.8732 3.75334" stroke="#B62230" stroke-miterlimit="10" stroke-linecap="round" stroke-linejoin="round"/>
<path d="M1.66663 5.23333C1.66663 4 2.32663 3.9 3.14663 3.9H13.52C14.34 3.9 15 4 15 5.23333C15 6.66667 14.34 6.56667 13.52 6.56667H3.14663C2.32663 6.56667 1.66663 6.66667 1.66663 5.23333Z" stroke="#B62230"/>
<path d="M2.66663 6.66666L3.60663 12.4267C3.81996 13.72 4.33329 14.6667 6.23996 14.6667H10.26C12.3333 14.6667 12.64 13.76 12.88 12.5067L14 6.66666" stroke="#B62230" stroke-linecap="round"/>
</svg>
