<svg width="16" height="16" viewBox="0 0 16 16" fill="none" xmlns="http://www.w3.org/2000/svg">
<path d="M2.11353 4.96L8.00018 8.36666L13.8468 4.97998" stroke="white" stroke-linecap="round" stroke-linejoin="round"/>
<path d="M8.00024 14.4067V8.35999" stroke="white" stroke-linecap="round" stroke-linejoin="round"/>
<path d="M14.4068 8.55336V6.11334C14.4068 5.19334 13.7468 4.07335 12.9402 3.62668L9.38017 1.65334C8.62017 1.22667 7.38016 1.22667 6.62016 1.65334L3.06016 3.62668C2.25349 4.07335 1.59351 5.19334 1.59351 6.11334V9.88669C1.59351 10.8067 2.25349 11.9267 3.06016 12.3733L6.62016 14.3467C7.00016 14.56 7.50016 14.6667 8.00016 14.6667C8.50016 14.6667 9.00017 14.56 9.38017 14.3467" stroke="white" stroke-linecap="round" stroke-linejoin="round"/>
<path d="M12.8001 14.2667C13.9783 14.2667 14.9334 13.3115 14.9334 12.1333C14.9334 10.9551 13.9783 10 12.8001 10C11.6219 10 10.6667 10.9551 10.6667 12.1333C10.6667 13.3115 11.6219 14.2667 12.8001 14.2667Z" stroke="white" stroke-linecap="round" stroke-linejoin="round"/>
<path d="M15.3334 14.6667L14.6667 14" stroke="white" stroke-linecap="round" stroke-linejoin="round"/>
</svg>
