<svg width="16" height="16" viewBox="0 0 16 16" fill="none" xmlns="http://www.w3.org/2000/svg">
<path d="M6.66667 14.6667H9.33333C12.6667 14.6667 14 13.3333 14 10V6C14 2.66667 12.6667 1.33334 9.33333 1.33334H6.66667C3.33333 1.33334 2 2.66667 2 6V10C2 13.3333 3.33333 14.6667 6.66667 14.6667Z" stroke="#111111" stroke-opacity="0.72" stroke-linecap="round" stroke-linejoin="round"/>
<path d="M11 5.05334V5.72C11 6.26667 10.5533 6.72 10 6.72H6C5.45333 6.72 5 6.27334 5 5.72V5.05334C5 4.50667 5.44667 4.05334 6 4.05334H10C10.5533 4.05334 11 4.5 11 5.05334Z" stroke="#111111" stroke-opacity="0.72" stroke-linecap="round" stroke-linejoin="round"/>
<path d="M5.42408 9.33333H5.43178" stroke="#111111" stroke-opacity="0.72" stroke-width="1.33333" stroke-linecap="round" stroke-linejoin="round"/>
<path d="M7.99683 9.33333H8.00454" stroke="#111111" stroke-opacity="0.72" stroke-width="1.33333" stroke-linecap="round" stroke-linejoin="round"/>
<path d="M10.5696 9.33333H10.5773" stroke="#111111" stroke-opacity="0.72" stroke-width="1.33333" stroke-linecap="round" stroke-linejoin="round"/>
<path d="M5.42408 11.6667H5.43178" stroke="#111111" stroke-opacity="0.72" stroke-width="1.33333" stroke-linecap="round" stroke-linejoin="round"/>
<path d="M7.99683 11.6667H8.00454" stroke="#111111" stroke-opacity="0.72" stroke-width="1.33333" stroke-linecap="round" stroke-linejoin="round"/>
<path d="M10.5696 11.6667H10.5773" stroke="#111111" stroke-opacity="0.72" stroke-width="1.33333" stroke-linecap="round" stroke-linejoin="round"/>
</svg>
