<svg width="16" height="16" viewBox="0 0 16 16" fill="none" xmlns="http://www.w3.org/2000/svg">
<path d="M3.33325 6.66666H4.66659C5.99992 6.66666 6.66659 6 6.66659 4.66666V3.33333C6.66659 1.99999 5.99992 1.33333 4.66659 1.33333H3.33325C1.99992 1.33333 1.33325 1.99999 1.33325 3.33333V4.66666C1.33325 6 1.99992 6.66666 3.33325 6.66666Z" stroke="#111111" stroke-width="1.5" stroke-miterlimit="10" stroke-linecap="round" stroke-linejoin="round"/>
<path d="M11.3333 6.66666H12.6666C13.9999 6.66666 14.6666 6 14.6666 4.66666V3.33333C14.6666 1.99999 13.9999 1.33333 12.6666 1.33333H11.3333C9.99992 1.33333 9.33325 1.99999 9.33325 3.33333V4.66666C9.33325 6 9.99992 6.66666 11.3333 6.66666Z" stroke="#111111" stroke-width="1.5" stroke-miterlimit="10" stroke-linecap="round" stroke-linejoin="round"/>
<path d="M11.3333 14.6667H12.6666C13.9999 14.6667 14.6666 14 14.6666 12.6667V11.3333C14.6666 9.99999 13.9999 9.33333 12.6666 9.33333H11.3333C9.99992 9.33333 9.33325 9.99999 9.33325 11.3333V12.6667C9.33325 14 9.99992 14.6667 11.3333 14.6667Z" stroke="#111111" stroke-width="1.5" stroke-miterlimit="10" stroke-linecap="round" stroke-linejoin="round"/>
<path d="M3.33325 14.6667H4.66659C5.99992 14.6667 6.66659 14 6.66659 12.6667V11.3333C6.66659 9.99999 5.99992 9.33333 4.66659 9.33333H3.33325C1.99992 9.33333 1.33325 9.99999 1.33325 11.3333V12.6667C1.33325 14 1.99992 14.6667 3.33325 14.6667Z" stroke="#111111" stroke-width="1.5" stroke-miterlimit="10" stroke-linecap="round" stroke-linejoin="round"/>
</svg>
