<svg width="16" height="16" viewBox="0 0 16 16" fill="none" xmlns="http://www.w3.org/2000/svg">
<path d="M2 14.6667H14" stroke="#111111" stroke-opacity="0.72" stroke-linecap="round" stroke-linejoin="round"/>
<path d="M3.73332 5.58667H2.66667C2.3 5.58667 2 5.88667 2 6.25334V12C2 12.3667 2.3 12.6667 2.66667 12.6667H3.73332C4.09998 12.6667 4.39998 12.3667 4.39998 12V6.25334C4.39998 5.88667 4.09998 5.58667 3.73332 5.58667Z" stroke="#111111" stroke-opacity="0.72" stroke-linecap="round" stroke-linejoin="round"/>
<path d="M8.53337 3.46H7.46672C7.10005 3.46 6.80005 3.76 6.80005 4.12667V12C6.80005 12.3667 7.10005 12.6667 7.46672 12.6667H8.53337C8.90003 12.6667 9.20003 12.3667 9.20003 12V4.12667C9.20003 3.76 8.90003 3.46 8.53337 3.46Z" stroke="#111111" stroke-opacity="0.72" stroke-linecap="round" stroke-linejoin="round"/>
<path d="M13.3332 1.33334H12.2665C11.8999 1.33334 11.5999 1.63334 11.5999 2V12C11.5999 12.3667 11.8999 12.6667 12.2665 12.6667H13.3332C13.6998 12.6667 13.9998 12.3667 13.9998 12V2C13.9998 1.63334 13.6998 1.33334 13.3332 1.33334Z" stroke="#111111" stroke-opacity="0.72" stroke-linecap="round" stroke-linejoin="round"/>
</svg>
