<svg width="16" height="16" viewBox="0 0 16 16" fill="none" xmlns="http://www.w3.org/2000/svg">
<path d="M12.42 4.76667C12.4467 5.17334 12.4134 5.63334 12.3334 6.14667L11.8467 9.27334C11.4334 11.88 10.2267 12.76 7.62004 12.3533L4.49337 11.86C3.59337 11.72 2.90004 11.48 2.39337 11.12C1.4267 10.4467 1.1467 9.34 1.41337 7.63334L1.9067 4.50667C2.32004 1.9 3.5267 1.02 6.13337 1.42667L9.26004 1.92C11.3534 2.24667 12.3334 3.1 12.42 4.76667Z" stroke="#111111" stroke-linecap="round" stroke-linejoin="round"/>
<path d="M13.6666 8.98L12.6666 11.9867C11.8333 14.4933 10.5 15.16 7.99331 14.3267L4.98664 13.3267C3.47331 12.8267 2.63331 12.1333 2.39331 11.12C2.89998 11.48 3.59331 11.72 4.49331 11.86L7.61998 12.3533C10.2266 12.76 11.4333 11.88 11.8466 9.27333L12.3333 6.14666C12.4133 5.63333 12.4466 5.17333 12.42 4.76666C14.0133 5.61333 14.36 6.89333 13.6666 8.98Z" stroke="#111111" stroke-linecap="round" stroke-linejoin="round"/>
<path d="M5.49337 5.98667C6.13402 5.98667 6.65337 5.46732 6.65337 4.82667C6.65337 4.18602 6.13402 3.66667 5.49337 3.66667C4.85272 3.66667 4.33337 4.18602 4.33337 4.82667C4.33337 5.46732 4.85272 5.98667 5.49337 5.98667Z" stroke="#111111" stroke-linecap="round" stroke-linejoin="round"/>
</svg>
