<svg width="17" height="16" viewBox="0 0 17 16" fill="none" xmlns="http://www.w3.org/2000/svg">
<path d="M12.3599 9.03332C12.0799 9.30665 11.9199 9.69999 11.9599 10.12C12.0199 10.84 12.6799 11.3666 13.3999 11.3666H14.6665V12.16C14.6665 13.54 13.5399 14.6667 12.1599 14.6667H5.42654C5.97988 14.18 6.33321 13.4667 6.33321 12.6667C6.33321 11.1933 5.13988 9.99999 3.66654 9.99999C3.03988 9.99999 2.45988 10.22 1.99988 10.5867V7.67333C1.99988 6.29333 3.12654 5.16666 4.50654 5.16666H12.1599C13.5399 5.16666 14.6665 6.29333 14.6665 7.67333V8.63333H13.3199C12.9465 8.63333 12.6065 8.77998 12.3599 9.03332Z" stroke="#3E00FF" stroke-width="0.8" stroke-linecap="round" stroke-linejoin="round"/>
<path d="M1.99988 7.67332V5.22667C1.99988 4.43333 2.48654 3.72664 3.22654 3.44664L8.51988 1.44664C9.34654 1.13997 10.2332 1.74666 10.2332 2.63332V5.16665" stroke="#3E00FF" stroke-width="0.8" stroke-linecap="round" stroke-linejoin="round"/>
<path d="M15.3724 9.31343V10.6868C15.3724 11.0535 15.0791 11.3534 14.7057 11.3668H13.3991C12.6791 11.3668 12.0191 10.8401 11.9591 10.1201C11.9191 9.70011 12.0791 9.30677 12.3591 9.03344C12.6057 8.7801 12.9457 8.63345 13.3191 8.63345H14.7057C15.0791 8.64679 15.3724 8.94676 15.3724 9.31343Z" stroke="#3E00FF" stroke-width="0.8" stroke-linecap="round" stroke-linejoin="round"/>
<path d="M4.99988 8H9.66654" stroke="#3E00FF" stroke-width="0.8" stroke-linecap="round" stroke-linejoin="round"/>
<path d="M6.33321 12.6667C6.33321 13.4667 5.97988 14.18 5.42654 14.6667C4.95321 15.08 4.33988 15.3333 3.66654 15.3333C2.19321 15.3333 0.999878 14.14 0.999878 12.6667C0.999878 11.8267 1.38654 11.0733 1.99988 10.5867C2.45988 10.22 3.03988 10 3.66654 10C5.13988 10 6.33321 11.1933 6.33321 12.6667Z" stroke="#3E00FF" stroke-width="0.8" stroke-miterlimit="10" stroke-linecap="round" stroke-linejoin="round"/>
<path d="M3.83321 11.8333V12.8333L2.99988 13.3333" stroke="#3E00FF" stroke-width="0.8" stroke-miterlimit="10" stroke-linecap="round" stroke-linejoin="round"/>
</svg>
