<svg width="24" height="24" viewBox="0 0 24 24" fill="none" xmlns="http://www.w3.org/2000/svg">
<rect width="24" height="24" rx="12" fill="#B9B4FC"/>
<path fill-rule="evenodd" clip-rule="evenodd" d="M14.3804 11.833C14.3804 14.7447 12.1341 17.1051 12.1341 17.1051C12.1341 17.1051 9.88772 14.7447 9.88772 11.833C9.88772 8.92134 12.1341 6.56094 12.1341 6.56094C12.1341 6.56094 14.3804 8.92134 14.3804 11.833ZM19.0388 15.2995C16.98 17.3584 13.7225 17.439 13.7225 17.439C13.7225 17.439 13.8031 14.1815 15.862 12.1227C17.9209 10.0638 21.1783 9.98317 21.1783 9.98317C21.1783 9.98317 21.0977 13.2406 19.0388 15.2995ZM10.6342 17.4391C10.6342 17.4391 10.5536 14.1816 8.49469 12.1227C6.43581 10.0638 3.17834 9.9832 3.17834 9.9832C3.17834 9.9832 3.25897 13.2407 5.31785 15.2996C7.37673 17.3584 10.6342 17.4391 10.6342 17.4391Z" fill="#3E00FF"/>
</svg>
