<svg width="25" height="24" viewBox="0 0 25 24" fill="none" xmlns="http://www.w3.org/2000/svg">
<path fill-rule="evenodd" clip-rule="evenodd" d="M9.375 22H15.375C20.375 22 22.375 20 22.375 15V9C22.375 4 20.375 2 15.375 2H9.375C4.375 2 2.375 4 2.375 9V15C2.375 20 4.375 22 9.375 22ZM12.9322 8.14754C11.8963 7.06602 10.2217 7.06937 9.19884 8.14648L9.19815 8.14721L7.00884 10.4465L7.00846 10.4469C5.96372 11.5475 5.96384 13.3731 7.0088 14.4735L12.9322 8.14754ZM12.9322 8.14754C13.9763 9.2482 13.9759 11.0734 12.9312 12.1736L12.9307 12.1741L11.8407 13.3241C11.5557 13.6247 11.5684 14.0994 11.869 14.3844C12.1697 14.6693 12.6444 14.6566 12.9293 14.356L14.0188 13.2065L14.0192 13.2061L14.0193 13.206C15.6137 11.5265 15.6136 8.79284 14.0189 7.11356L14.0169 7.11152C12.3928 5.41416 9.72836 5.41101 8.11151 7.11318L8.11115 7.11356L5.92183 9.41283L5.92114 9.41355C4.32627 11.093 4.32627 13.827 5.92114 15.5065L5.92146 15.5068C6.62583 16.2476 7.54416 16.6801 8.4862 16.7668C8.89867 16.8048 9.26384 16.5013 9.30183 16.0888C9.33982 15.6763 9.03624 15.3112 8.62378 15.2732C8.04595 15.2199 7.46443 14.9525 7.00884 14.4735L12.9322 8.14754ZM16.2638 7.23314C15.8513 7.19515 15.4862 7.49872 15.4482 7.91119C15.4102 8.32366 15.7137 8.68883 16.1262 8.72682C16.7042 8.78005 17.2858 9.04757 17.7415 9.52678C18.7862 10.6272 18.7862 12.4526 17.7415 13.5531L17.7412 13.5535L15.5518 15.8528L15.5511 15.8535C14.5283 16.9306 12.8537 16.934 11.8179 15.8525C10.7737 14.7518 10.774 12.9266 11.8188 11.8264L11.8193 11.8259L12.9093 10.6759C13.1943 10.3753 13.1816 9.90059 12.8809 9.61564C12.5803 9.33069 12.1056 9.3434 11.8207 9.64403L10.7311 10.7935L10.7309 10.7938C9.13627 12.4732 9.13635 15.2071 10.7311 16.8864L10.7331 16.8885C12.3572 18.5858 15.0215 18.589 16.6384 16.8869L16.6388 16.8864L18.8282 14.5872L18.8288 14.5864C20.4237 12.907 20.4237 10.173 18.8288 8.49352L18.8285 8.49318C18.1242 7.75239 17.2058 7.31991 16.2638 7.23314Z" fill="white"/>
</svg>
