<svg width="25" height="24" viewBox="0 0 25 24" fill="none" xmlns="http://www.w3.org/2000/svg">
<path d="M22.3044 10.3819L22.1984 9.93234H12.4278V14.0677H18.2656C17.6595 16.9458 14.847 18.4608 12.5497 18.4608C10.8781 18.4608 9.11609 17.7577 7.94984 16.6275C7.33453 16.0217 6.84474 15.3005 6.50853 14.5051C6.17231 13.7098 5.99626 12.856 5.99047 11.9925C5.99047 10.2506 6.77328 8.50828 7.91234 7.36219C9.05141 6.21609 10.7717 5.57484 12.4822 5.57484C14.4411 5.57484 15.845 6.615 16.37 7.08938L19.3086 4.16625C18.4466 3.40875 16.0784 1.5 12.3875 1.5C9.53984 1.5 6.80937 2.59078 4.81344 4.58016C2.84375 6.53906 1.82422 9.37172 1.82422 12C1.82422 14.6283 2.78891 17.3194 4.69766 19.2938C6.73719 21.3994 9.62563 22.5 12.5998 22.5C15.3059 22.5 17.8709 21.4397 19.6991 19.5159C21.4963 17.6222 22.4258 15.0019 22.4258 12.255C22.4258 11.0986 22.3095 10.4119 22.3044 10.3819Z" fill="white"/>
</svg>
