<svg width="16" height="16" viewBox="0 0 16 16" fill="none" xmlns="http://www.w3.org/2000/svg">
<path d="M2.00659 7.48001V10.4733C2.00659 13.4667 3.20659 14.6667 6.19993 14.6667H9.79326C12.7866 14.6667 13.9866 13.4667 13.9866 10.4733V7.48001" stroke="#111111" stroke-opacity="0.72" stroke-linecap="round" stroke-linejoin="round"/>
<path d="M7.99999 8C9.21999 8 10.12 7.00666 9.99999 5.78666L9.55999 1.33333H6.44666L5.99999 5.78666C5.87999 7.00666 6.77999 8 7.99999 8Z" stroke="#111111" stroke-opacity="0.72" stroke-linecap="round" stroke-linejoin="round"/>
<path d="M12.2068 8C13.5534 8 14.5401 6.90666 14.4068 5.56666L14.2201 3.73333C13.9801 1.99999 13.3134 1.33333 11.5668 1.33333H9.53345L10.0001 6.00666C10.1134 7.10666 11.1068 8 12.2068 8Z" stroke="#111111" stroke-opacity="0.72" stroke-linecap="round" stroke-linejoin="round"/>
<path d="M3.75992 8C4.85992 8 5.85325 7.10666 5.95992 6.00666L6.10659 4.53333L6.42659 1.33333H4.39326C2.64659 1.33333 1.97992 1.99999 1.73992 3.73333L1.55992 5.56666C1.42659 6.90666 2.41326 8 3.75992 8Z" stroke="#111111" stroke-opacity="0.72" stroke-linecap="round" stroke-linejoin="round"/>
<path d="M7.99992 11.3333C6.88659 11.3333 6.33325 11.8867 6.33325 13V14.6667H9.66659V13C9.66659 11.8867 9.11325 11.3333 7.99992 11.3333Z" stroke="#111111" stroke-opacity="0.72" stroke-linecap="round" stroke-linejoin="round"/>
</svg>
