<svg width="17" height="16" viewBox="0 0 17 16" fill="none" xmlns="http://www.w3.org/2000/svg">
<path d="M10.3333 1.33333V8C10.3333 8.73333 9.73329 9.33333 8.99996 9.33333H1.66663V5.08C2.15329 5.66 2.89998 6.02 3.72664 6C4.39998 5.98667 5.00663 5.72667 5.45996 5.29333C5.66663 5.12 5.83997 4.89999 5.97331 4.65999C6.21331 4.25333 6.34663 3.77331 6.33329 3.27331C6.31329 2.49331 5.96664 1.80667 5.42664 1.33333H10.3333Z" stroke="#FF8C00" stroke-linecap="round" stroke-linejoin="round"/>
<path d="M15 9.33333V11.3333C15 12.44 14.1066 13.3333 13 13.3333H12.3333C12.3333 12.6 11.7333 12 11 12C10.2666 12 9.66663 12.6 9.66663 13.3333H6.99996C6.99996 12.6 6.39996 12 5.66663 12C4.93329 12 4.33329 12.6 4.33329 13.3333H3.66663C2.55996 13.3333 1.66663 12.44 1.66663 11.3333V9.33333H8.99996C9.73329 9.33333 10.3333 8.73333 10.3333 8V3.33333H11.56C12.04 3.33333 12.48 3.59334 12.72 4.00667L13.8599 6H13C12.6333 6 12.3333 6.3 12.3333 6.66667V8.66667C12.3333 9.03333 12.6333 9.33333 13 9.33333H15Z" stroke="#FF8C00" stroke-linecap="round" stroke-linejoin="round"/>
<path d="M5.66659 14.6667C6.40297 14.6667 6.99992 14.0697 6.99992 13.3333C6.99992 12.597 6.40297 12 5.66659 12C4.93021 12 4.33325 12.597 4.33325 13.3333C4.33325 14.0697 4.93021 14.6667 5.66659 14.6667Z" stroke="#FF8C00" stroke-linecap="round" stroke-linejoin="round"/>
<path d="M11 14.6667C11.7363 14.6667 12.3333 14.0697 12.3333 13.3333C12.3333 12.597 11.7363 12 11 12C10.2636 12 9.66663 12.597 9.66663 13.3333C9.66663 14.0697 10.2636 14.6667 11 14.6667Z" stroke="#FF8C00" stroke-linecap="round" stroke-linejoin="round"/>
<path d="M14.9999 8V9.33333H12.9999C12.6333 9.33333 12.3333 9.03333 12.3333 8.66667V6.66667C12.3333 6.3 12.6333 6 12.9999 6H13.8599L14.9999 8Z" stroke="#FF8C00" stroke-linecap="round" stroke-linejoin="round"/>
<path d="M6.33321 3.33333C6.33321 4.13333 5.97989 4.84667 5.42655 5.33333C4.95322 5.74667 4.33988 6 3.66654 6C2.19321 6 0.999878 4.80667 0.999878 3.33333C0.999878 2.49333 1.38654 1.74 1.99988 1.25334C2.45988 0.886671 3.03988 0.666668 3.66654 0.666668C5.13988 0.666668 6.33321 1.86 6.33321 3.33333Z" stroke="#FF8C00" stroke-miterlimit="10" stroke-linecap="round" stroke-linejoin="round"/>
<path d="M3.83321 2.5V3.5L2.99988 4" stroke="#FF8C00" stroke-miterlimit="10" stroke-linecap="round" stroke-linejoin="round"/>
</svg>
