<svg width="16" height="16" viewBox="0 0 16 16" fill="none" xmlns="http://www.w3.org/2000/svg">
<path d="M7.63993 9.15331C8.67455 9.15331 9.51327 8.31459 9.51327 7.27998C9.51327 6.24537 8.67455 5.40665 7.63993 5.40665C6.60532 5.40665 5.7666 6.24537 5.7666 7.27998C5.7666 8.31459 6.60532 9.15331 7.63993 9.15331Z" stroke="#111111" stroke-linecap="round" stroke-linejoin="round"/>
<path d="M11.0999 13.4667C11.0999 11.9133 9.55326 10.6466 7.63993 10.6466C5.7266 10.6466 4.17993 11.9067 4.17993 13.4667" stroke="#111111" stroke-linecap="round" stroke-linejoin="round"/>
<path d="M13.9999 8.33333C13.9999 11.8333 11.1666 14.6667 7.66659 14.6667C4.16659 14.6667 1.33325 11.8333 1.33325 8.33333C1.33325 4.83333 4.16659 2 7.66659 2C8.53992 2 9.37325 2.17333 10.1333 2.49333C10.0466 2.75999 9.99992 3.04 9.99992 3.33333C9.99992 3.83333 10.1399 4.30667 10.3866 4.70667C10.5199 4.93333 10.6933 5.13998 10.8933 5.31331C11.3599 5.73998 11.9799 6 12.6666 6C12.9599 6 13.2399 5.95332 13.4999 5.85999C13.8199 6.61999 13.9999 7.46 13.9999 8.33333Z" stroke="#111111" stroke-linecap="round" stroke-linejoin="round"/>
<path d="M15.3333 3.33332C15.3333 3.54666 15.3067 3.75332 15.2533 3.95332C15.1933 4.21999 15.0867 4.47999 14.9467 4.70665C14.6267 5.24666 14.1133 5.66664 13.5 5.85998C13.24 5.95331 12.96 5.99999 12.6667 5.99999C11.98 5.99999 11.36 5.73997 10.8933 5.3133C10.6933 5.13997 10.52 4.93332 10.3867 4.70665C10.14 4.30665 10 3.83332 10 3.33332C10 3.03999 10.0467 2.75998 10.1333 2.49332C10.26 2.10665 10.4733 1.76 10.7533 1.47334C11.24 0.973338 11.92 0.666656 12.6667 0.666656C13.4533 0.666656 14.1667 1.00667 14.6467 1.55333C15.0733 2.02667 15.3333 2.65332 15.3333 3.33332Z" stroke="#111111" stroke-miterlimit="10" stroke-linecap="round" stroke-linejoin="round"/>
<path d="M13.66 3.31998H11.6733" stroke="#111111" stroke-miterlimit="10" stroke-linecap="round" stroke-linejoin="round"/>
<path d="M12.6667 2.34668V4.34001" stroke="#111111" stroke-miterlimit="10" stroke-linecap="round" stroke-linejoin="round"/>
</svg>
