<svg width="40" height="41" viewBox="0 0 40 41" fill="none" xmlns="http://www.w3.org/2000/svg">
<path d="M20.8333 37.1666H10.9847C8.40907 37.1666 6.36044 35.9132 4.52102 34.1609C0.755529 30.5734 6.93792 27.7066 9.29587 26.3026C12.7972 24.2177 16.8946 23.4531 20.8333 24.0086C22.2624 24.2101 23.6543 24.5856 24.9999 25.1347" stroke="#111111" stroke-opacity="0.72" stroke-width="3" stroke-linecap="round" stroke-linejoin="round"/>
<path d="M27.5 11.3333C27.5 15.4754 24.1422 18.8333 20 18.8333C15.8579 18.8333 12.5 15.4754 12.5 11.3333C12.5 7.19112 15.8579 3.83325 20 3.83325C24.1422 3.83325 27.5 7.19112 27.5 11.3333Z" stroke="#111111" stroke-opacity="0.72" stroke-width="3"/>
<path d="M30.8333 37.1667V25.5M25 31.3333H36.6667" stroke="#111111" stroke-opacity="0.72" stroke-width="3" stroke-linecap="round"/>
</svg>
