<svg width="16" height="16" viewBox="0 0 16 16" fill="none" xmlns="http://www.w3.org/2000/svg">
<path d="M7.16781 11.2402V12.5936C7.16781 13.7403 6.10113 14.6669 4.7878 14.6669C3.47447 14.6669 2.40112 13.7403 2.40112 12.5936V11.2402C2.40112 12.3869 3.4678 13.2002 4.7878 13.2002C6.10113 13.2002 7.16781 12.3802 7.16781 11.2402Z" stroke="#111111" stroke-opacity="0.72" stroke-linecap="round" stroke-linejoin="round"/>
<path d="M7.16663 9.40666C7.16663 9.73999 7.07329 10.0466 6.91329 10.3133C6.51996 10.96 5.71328 11.3667 4.77995 11.3667C3.84661 11.3667 3.03994 10.9533 2.64661 10.3133C2.48661 10.0466 2.39331 9.73999 2.39331 9.40666C2.39331 8.83332 2.65996 8.31999 3.08663 7.94666C3.51996 7.56666 4.11327 7.34001 4.77327 7.34001C5.43327 7.34001 6.02663 7.57332 6.45996 7.94666C6.89996 8.31332 7.16663 8.83332 7.16663 9.40666Z" stroke="#111111" stroke-opacity="0.72" stroke-linecap="round" stroke-linejoin="round"/>
<path d="M7.16781 9.40666V11.24C7.16781 12.3867 6.10113 13.2 4.7878 13.2C3.47447 13.2 2.40112 12.38 2.40112 11.24V9.40666C2.40112 8.25999 3.4678 7.33333 4.7878 7.33333C5.4478 7.33333 6.04115 7.56665 6.47449 7.93998C6.90115 8.31332 7.16781 8.83332 7.16781 9.40666Z" stroke="#111111" stroke-opacity="0.72" stroke-linecap="round" stroke-linejoin="round"/>
<path d="M14.6667 7.31331V8.68669C14.6667 9.05335 14.3734 9.35333 14.0001 9.36666H12.6934C11.9734 9.36666 11.3134 8.84 11.2534 8.12C11.2134 7.7 11.3734 7.30666 11.6534 7.03333C11.9 6.77999 12.24 6.63334 12.6134 6.63334H14.0001C14.3734 6.64668 14.6667 6.94665 14.6667 7.31331Z" stroke="#111111" stroke-opacity="0.72" stroke-linecap="round" stroke-linejoin="round"/>
<path d="M1.33325 7V5.66667C1.33325 3.85333 2.42659 2.58667 4.12659 2.37333C4.29992 2.34667 4.47992 2.33333 4.66659 2.33333H10.6666C10.8399 2.33333 11.0066 2.33999 11.1666 2.36666C12.8866 2.56666 13.9999 3.84 13.9999 5.66667V6.63334H12.6132C12.2399 6.63334 11.8999 6.77999 11.6532 7.03333C11.3732 7.30666 11.2133 7.7 11.2533 8.12C11.3133 8.84 11.9732 9.36666 12.6932 9.36666H13.9999V10.3333C13.9999 12.3333 12.6666 13.6667 10.6666 13.6667H8.99992" stroke="#111111" stroke-opacity="0.72" stroke-linecap="round" stroke-linejoin="round"/>
</svg>
