<svg width="24" height="30" viewBox="0 0 24 30" fill="none" xmlns="http://www.w3.org/2000/svg">
<path d="M11.9419 3.05441C18.6014 3.05441 24.0001 8.45304 24.0001 15.1126C24.0001 16.203 23.9677 25.9738 23.9677 25.9738L18.7076 29.0979C18.7076 29.0979 18.6835 16.218 18.6835 15.1126C18.6835 11.3893 15.6652 8.37097 11.9419 8.37097C9.96106 8.37097 8.17978 9.24593 6.94635 10.6221L2.29947 7.87099C4.49968 4.94599 7.99988 3.05441 11.9419 3.05441Z" fill="white"/>
<path d="M12.0582 27C5.39869 27 5.92303e-05 21.6013 5.98125e-05 14.9418C5.99078e-05 13.8514 0.0324104 4.08062 0.0324104 4.08062L5.29253 0.956452C5.29253 0.956452 5.31663 13.8363 5.31663 14.9418C5.31663 18.6651 8.33495 21.6834 12.0582 21.6834C14.0391 21.6834 15.8203 20.8085 17.0538 19.4323L21.7007 22.1834C19.5004 25.1084 16.0002 27 12.0582 27Z" fill="white"/>
<circle cx="3.54165" cy="3.54165" r="3.54165" transform="matrix(0 -1 -1 0 15.5416 18.5417)" fill="white"/>
</svg>
